<?xml version="1.0" encoding="UTF-8"?>
<svg version="1.1" xmlns="http://www.w3.org/2000/svg" width="512" height="512">
<path d="M0 0 C0.73976074 0.17692383 1.47952148 0.35384766 2.24169922 0.53613281 C50.56619786 12.32955103 91.82317084 41.85979418 117.76953125 84.45703125 C141.07302082 124.19737189 148.21158904 172.14725794 138 217 C137.68651611 218.40088867 137.68651611 218.40088867 137.36669922 219.83007812 C127.57205308 262.53033319 108.49165561 303.03786237 87 341 C86.40928711 342.04575195 85.81857422 343.09150391 85.20996094 344.16894531 C83.31508891 347.51335988 81.41001074 350.85171004 79.5 354.1875 C78.93168457 355.18338135 78.36336914 356.1792627 77.77783203 357.20532227 C68.70506373 372.91970191 58.72544039 388.08114073 48.64550781 403.16210938 C46.99718245 405.62921713 45.35385036 408.09959804 43.7109375 410.5703125 C34.45642582 424.45853642 24.94604228 438.15897266 15 451.5625 C14.41951904 452.34713623 13.83903809 453.13177246 13.2409668 453.94018555 C11.49659269 456.29541147 9.74885921 458.6481032 8 461 C7.46842285 461.71607422 6.9368457 462.43214844 6.38916016 463.16992188 C-0.59176827 472.56538905 -7.69347604 481.855096 -15 491 C-15.41942871 491.52529297 -15.83885742 492.05058594 -16.27099609 492.59179688 C-29.12981695 508.64381567 -29.12981695 508.64381567 -34.70703125 509.3359375 C-35.73183594 509.34882812 -36.75664062 509.36171875 -37.8125 509.375 C-38.82957031 509.40335938 -39.84664062 509.43171875 -40.89453125 509.4609375 C-47.59781757 508.46598431 -51.27679392 503.86936471 -55.125 498.6875 C-56.0889097 497.42376618 -57.05378597 496.16076913 -58.01953125 494.8984375 C-58.51146973 494.25100586 -59.0034082 493.60357422 -59.51025391 492.93652344 C-61.41189875 490.46457213 -63.37369641 488.04517645 -65.34082031 485.62524414 C-72.26051556 477.10189689 -78.75872144 468.29044309 -85.2265625 459.421875 C-86.95267156 457.06463355 -88.69217493 454.71803913 -90.4375 452.375 C-144.89241413 379.20484476 -209.6704146 286.37122917 -218.3125 176.8125 C-218.31067719 176.09455261 -218.30885437 175.37660522 -218.30697632 174.63690186 C-218.25697623 162.8860658 -217.56708875 151.49479778 -215 140 C-214.82307617 139.2049707 -214.64615234 138.40994141 -214.46386719 137.59082031 C-203.4338444 89.64165389 -174.31230394 48.90206094 -132.75146484 22.57568359 C-115.15755477 11.85907465 -95.96078383 4.86204 -76 0 C-74.93120605 -0.26901123 -74.93120605 -0.26901123 -73.84082031 -0.54345703 C-51.26648642 -5.95334619 -22.49127626 -5.58098864 0 0 Z M-47 60 C-50.82610973 64.02232048 -52.12906513 66.54266769 -52.09765625 72.0078125 C-52.09443359 72.99394531 -52.09121094 73.98007813 -52.08789062 74.99609375 C-52.07951172 76.02863281 -52.07113281 77.06117187 -52.0625 78.125 C-52.05798828 79.16527344 -52.05347656 80.20554687 -52.04882812 81.27734375 C-52.03701952 83.85161962 -52.02055075 86.42578146 -52 89 C-52.56122559 89.04318359 -53.12245117 89.08636719 -53.70068359 89.13085938 C-59.00300301 89.6168403 -63.66392419 90.58109931 -68.625 92.5 C-69.30667236 92.76280762 -69.98834473 93.02561523 -70.69067383 93.29638672 C-94.0167453 102.68059299 -111.00377298 120.04448475 -121.17041016 142.97314453 C-123.62232222 148.96366071 -126 155.49304697 -126 162 C-127.27875 161.95359375 -128.5575 161.9071875 -129.875 161.859375 C-131.58330979 161.82182973 -133.29164508 161.78543255 -135 161.75 C-135.83917969 161.71648437 -136.67835938 161.68296875 -137.54296875 161.6484375 C-143.54221704 161.5554259 -148.00854559 162.57022983 -153 166 C-156.17151079 169.4093741 -157.24805676 172.00070681 -157.4375 176.5625 C-157.24104984 180.46530976 -156.54550172 182.92784275 -154 186 C-149.90314632 189.59723738 -147.62642794 191.13027969 -142.2109375 191.09765625 C-141.26992187 191.09443359 -140.32890625 191.09121094 -139.359375 191.08789062 C-138.37453125 191.07951172 -137.3896875 191.07113281 -136.375 191.0625 C-134.88613281 191.05573242 -134.88613281 191.05573242 -133.3671875 191.04882812 C-130.9113984 191.03702145 -128.45572896 191.020554 -126 191 C-125.87882812 192.18207031 -125.75765625 193.36414063 -125.6328125 194.58203125 C-123.69503172 209.93911269 -115.19336058 224.63602381 -105 236 C-104.18789062 236.90621094 -103.37578125 237.81242188 -102.5390625 238.74609375 C-89.53415856 252.49467988 -73.37435539 260.67235577 -55 265 C-54.01 265 -53.02 265 -52 265 C-52.04713135 265.9446814 -52.04713135 265.9446814 -52.09521484 266.90844727 C-52.22079246 269.79275844 -52.29823479 272.67649371 -52.375 275.5625 C-52.42527344 276.55314453 -52.47554688 277.54378906 -52.52734375 278.56445312 C-52.62835483 283.63184235 -52.53013202 287.0804455 -49.2265625 291.08984375 C-45.832702 294.59208778 -42.99482331 295.90372678 -38.125 296.375 C-32.74790297 296.22508094 -29.73559242 293.55951783 -25.84375 290.0625 C-23.03910957 285.40394472 -23.57291083 281.01039187 -23.75 275.6875 C-23.76804687 274.66076172 -23.78609375 273.63402344 -23.8046875 272.57617188 C-23.85168937 270.04982115 -23.91737728 267.52539531 -24 265 C-23.28932373 264.8980835 -22.57864746 264.79616699 -21.84643555 264.69116211 C-0.20737345 261.45749939 19.99463938 248.67933496 33.26367188 231.34960938 C41.47897857 219.84818001 50 205.45413992 50 191 C50.60473145 191.02094727 51.20946289 191.04189453 51.83251953 191.06347656 C54.59650771 191.14708945 57.36022913 191.19880054 60.125 191.25 C61.55199219 191.30027344 61.55199219 191.30027344 63.0078125 191.3515625 C70.30173973 191.45286704 73.32927243 190.16442032 78.8125 185.4375 C81.50609467 182.17683277 81.3412948 178.30000858 81.26953125 174.28125 C80.83253926 170.5826511 79.51537087 168.70402369 77 166 C71.16674511 161.99180479 65.92315582 161.47349915 59 161.75 C58.12988281 161.76804687 57.25976562 161.78609375 56.36328125 161.8046875 C54.24170093 161.85131564 52.12069665 161.92303923 50 162 C49.91878906 161.3304126 49.83757812 160.6608252 49.75390625 159.97094727 C47.00987649 139.08371453 34.08774391 119.57912212 17.90234375 106.49609375 C6.1011778 98.02162343 -9.00368386 88.74619921 -24 89 C-23.97905273 88.36497559 -23.95810547 87.72995117 -23.93652344 87.07568359 C-23.85295419 84.17561924 -23.80121226 81.27580884 -23.75 78.375 C-23.69972656 76.87646484 -23.69972656 76.87646484 -23.6484375 75.34765625 C-23.56711715 69.20796983 -23.86769751 65.65451654 -28 61 C-34.27988522 56.20745602 -40.27915683 56.23116897 -47 60 Z " fill="#0FB981" transform="translate(294,3)"/>
<path d="M0 0 C10.837286 10.28897093 19.05176379 24.45171845 19.61328125 39.66796875 C19.82002274 58.33203481 19.82002274 58.33203481 16.3125 66.6796875 C15.86003906 67.783125 15.40757812 68.8865625 14.94140625 70.0234375 C8.14297596 85.02237244 -2.53064954 95.76826264 -18.00390625 102.01953125 C-35.115601 107.91939165 -52.18807819 107.19088717 -68.6875 99.6796875 C-84.75265377 91.22994916 -94.17362848 77.85927067 -99.6875 60.6796875 C-103.03016448 48.3735724 -101.60403805 33.2384359 -96.6875 21.6796875 C-96.36007813 20.82632813 -96.03265625 19.97296875 -95.6953125 19.09375 C-89.63358739 5.06771452 -76.45643319 -5.45808489 -62.6875 -11.3203125 C-40.99600535 -19.24099464 -17.53955987 -15.14316651 0 0 Z " fill="#0FB881" transform="translate(296.6875,134.3203125)"/>
</svg>
